<?xml version="1.0" encoding="UTF-8" standalone="no"?>
<!-- Created with Inkscape (http://www.inkscape.org/) -->

<svg
   width="213.67931"
   height="68.210594"
   viewBox="0 0 56.535982 18.047387"
   version="1.1"
   id="svg5"
   inkscape:version="1.2.2 (732a01da63, 2022-12-09)"
   sodipodi:docname="logo.svg"
   xml:space="preserve"
   xmlns:inkscape="http://www.inkscape.org/namespaces/inkscape"
   xmlns:sodipodi="http://sodipodi.sourceforge.net/DTD/sodipodi-0.dtd"
   xmlns:xlink="http://www.w3.org/1999/xlink"
   xmlns="http://www.w3.org/2000/svg"
   xmlns:svg="http://www.w3.org/2000/svg"><sodipodi:namedview
     id="namedview7"
     pagecolor="#ffffff"
     bordercolor="#000000"
     borderopacity="0.25"
     inkscape:showpageshadow="2"
     inkscape:pageopacity="0"
     inkscape:pagecheckerboard="0"
     inkscape:deskcolor="#d1d1d1"
     inkscape:document-units="mm"
     showgrid="false"
     inkscape:zoom="2.0258491"
     inkscape:cx="109.58368"
     inkscape:cy="163.63509"
     inkscape:window-width="1920"
     inkscape:window-height="991"
     inkscape:window-x="-9"
     inkscape:window-y="-9"
     inkscape:window-maximized="1"
     inkscape:current-layer="text183-4"
     showguides="true"><sodipodi:guide
       position="31.229735,8.4768771"
       orientation="0,-1"
       id="guide698"
       inkscape:locked="false" /></sodipodi:namedview><defs
     id="defs2"><linearGradient
       inkscape:collect="always"
       id="linearGradient1295"><stop
         style="stop-color:#000000;stop-opacity:1;"
         offset="0"
         id="stop1291" /><stop
         style="stop-color:#000000;stop-opacity:0;"
         offset="1"
         id="stop1293" /></linearGradient><linearGradient
       inkscape:collect="always"
       xlink:href="#linearGradient1295"
       id="linearGradient1299"
       x1="99.518089"
       y1="-910.09979"
       x2="9900.543"
       y2="-910.09979"
       gradientUnits="userSpaceOnUse" /></defs><g
     inkscape:label="Capa 1"
     inkscape:groupmode="layer"
     id="layer1"
     transform="translate(-0.83346735,-0.42067128)"><g
       aria-label="Alexandria"
       id="text183"
       style="font-size:10.5833px;font-family:'Fira Code';-inkscape-font-specification:'Fira Code';text-align:center;text-anchor:middle;fill:#1f2937;stroke-width:2;stroke-linecap:round;stroke-linejoin:round;paint-order:stroke fill markers;stop-color:#000000"><path
         d="m 1.2038828,18.309309 q -0.37041545,0 -0.37041545,-0.285749 0,-0.232833 0.31749895,-0.275166 0.317499,-0.04233 0.4762485,-0.264582 0.09525,-0.127 0.1693328,-0.275166 0.03175,-0.0635 0.1375829,-0.306916 L 4.389456,10.932749 Q 4.4635391,10.774 4.495289,10.74225 q 0.042333,-0.04233 0.1481662,-0.04233 h 1.2805793 q 0.1164163,0 0.1481662,0.03175 0.042333,0.03175 0.09525,0.1905 l 2.296576,5.979564 q 0.09525,0.243416 0.1164163,0.296333 0.0635,0.148166 0.1693328,0.285749 0.1587495,0.222249 0.4762485,0.264582 0.3280822,0.04233 0.3280822,0.285749 0,0.275166 -0.3809987,0.275166 H 6.3579498 q -0.3809988,0 -0.3809988,-0.275166 0,-0.253999 0.3386656,-0.285749 0.3386655,-0.04233 0.3386655,-0.296332 0,-0.243416 -0.1375828,-0.550332 L 6.3685331,16.552481 q -0.0635,-0.126999 -0.1164163,-0.264582 -0.010583,-0.02117 -0.042333,-0.05292 -0.03175,-0.03175 -0.3280823,-0.03175 H 3.5427921 q -0.2857491,0 -0.317499,0.03175 L 3.0982935,16.510148 2.9501273,16.90173 q -0.1693328,0.412749 -0.1693328,0.571498 0,0.127 0.074083,0.1905 0.074083,0.0635 0.317499,0.09525 0.2539992,0.02117 0.2539992,0.275166 0,0.275166 -0.3704155,0.275166 z m 2.4553256,-3.090323 q 0,0.190499 0.2116659,0.190499 l 1.7568278,-0.01058 q 0.2222493,0 0.2222493,-0.15875 l -0.03175,-0.137583 -0.952497,-2.423575 q -0.03175,-0.08467 -0.052916,-0.105833 -0.010583,-0.02117 -0.042333,-0.03175 -0.042333,0 -0.105833,0.126999 l -0.9948301,2.444743 z"
         style="font-family:Verona-Serial;-inkscape-font-specification:Verona-Serial"
         id="path6866" /><path
         d="m 11.321522,10.7105 v 6.371146 q 0,0.391582 0.05292,0.529165 0.05292,0.127 0.328083,0.201083 0.275166,0.07408 0.275166,0.264582 0,0.232833 -0.28575,0.232833 H 9.2789451 q -0.2857491,0 -0.2857491,-0.243416 0,-0.116416 0.042333,-0.158749 0.042333,-0.04233 0.211666,-0.08467 0.2645825,-0.07408 0.3598322,-0.253999 0.010583,-0.02117 0.021167,-0.148166 0.021167,-0.127 0.021167,-0.349249 v -4.688402 q 0,-0.486832 -0.317499,-0.571498 l -0.105833,-0.03175 q -0.1587495,-0.07408 -0.1587495,-0.232832 0,-0.148167 0.1375829,-0.201083 l 1.873244,-0.783164 0.09525,-0.01058 q 0.116416,0 0.148166,0.15875 z"
         style="font-family:Verona-Serial;-inkscape-font-specification:Verona-Serial"
         id="path6868" /><path
         d="m 14.337766,16.234982 q -0.126999,0.03175 -0.126999,0.09525 0,0.0635 0.09525,0.296332 0.539748,1.02658 1.566328,1.02658 0.380999,0 0.719664,-0.148166 0.349249,-0.148166 0.698498,-0.476248 0.137583,-0.127 0.232833,-0.127 0.211666,0 0.211666,0.222249 0,0.09525 -0.08467,0.22225 -0.359832,0.529165 -1.005413,0.825497 -0.634998,0.296333 -1.418162,0.296333 -1.269996,0 -2.08491,-0.740831 -0.814914,-0.740831 -0.814914,-1.904994 0,-1.142997 0.77258,-1.926161 0.783165,-0.793747 1.936744,-0.793747 0.656165,0 1.18533,0.264582 0.529165,0.253999 0.888997,0.740831 0.201083,0.275166 0.359832,0.613831 0.105833,0.243416 0.105833,0.338666 0,0.09525 -0.09525,0.127 z m -0.243415,-0.571498 0.08467,-0.02117 1.672161,-0.550331 q 0.127,-0.05292 0.127,-0.116416 0,-0.07408 -0.105833,-0.338666 -0.09525,-0.275166 -0.296332,-0.507998 -0.328083,-0.380999 -0.772581,-0.380999 -0.402166,0 -0.656165,0.328082 -0.243416,0.317499 -0.243416,0.857247 0,0.306916 0.05292,0.518582 0.0635,0.211666 0.137583,0.211666 z"
         style="font-family:Verona-Serial;-inkscape-font-specification:Verona-Serial"
         id="path6870" /><path
         d="m 21.089916,14.509904 0.359832,0.444499 0.07408,0.03175 q 0.02117,-0.01058 0.04233,-0.02117 0.03175,-0.01058 0.05292,-0.04233 l 0.349248,-0.412749 q 0.15875,-0.179916 0.243416,-0.328082 0.09525,-0.148166 0.09525,-0.232832 0,-0.127 -0.148166,-0.169333 l -0.116416,-0.03175 q -0.148167,-0.0635 -0.148167,-0.222249 0,-0.243416 0.285749,-0.243416 h 1.777995 q 0.285749,0 0.285749,0.232832 0,0.116417 -0.05292,0.169333 -0.04233,0.04233 -0.264582,0.105833 -0.211666,0.05292 -0.423332,0.232833 l -0.169333,0.169332 -0.253999,0.317499 -0.867831,1.09008 q -0.04233,0.05292 -0.04233,0.116417 l 0.04233,0.09525 1.12183,1.269996 q 0.306916,0.349249 0.507998,0.518582 0.201083,0.169333 0.391583,0.222249 0.190499,0.05292 0.222249,0.09525 0.04233,0.03175 0.04233,0.158749 0,0.232833 -0.285749,0.232833 h -2.878658 q -0.285749,0 -0.285749,-0.243416 0,-0.158749 0.15875,-0.211666 l 0.105833,-0.03175 q 0.158749,-0.0635 0.158749,-0.169333 l -0.02117,-0.08467 -0.116417,-0.158749 -0.264582,-0.328083 -0.560915,-0.634998 -0.05292,-0.05292 q -0.05292,0.03175 -0.0635,0.05292 l -0.571498,0.634998 q -0.137583,0.169333 -0.232833,0.317499 -0.08467,0.137583 -0.08467,0.211666 0,0.148166 0.253999,0.211666 0.253999,0.05292 0.253999,0.253999 0,0.232833 -0.285749,0.232833 h -2.05316 q -0.296333,0 -0.296333,-0.243416 0,-0.179916 0.264583,-0.243416 0.412749,-0.105833 0.592665,-0.243416 l 0.179916,-0.169332 0.253999,-0.328083 1.079496,-1.312329 0.05292,-0.105833 q -0.03175,-0.07408 -0.05292,-0.09525 l -0.910163,-1.05833 q -0.571498,-0.645581 -0.941914,-0.730247 -0.243416,-0.07408 -0.243416,-0.253999 0,-0.243416 0.285749,-0.243416 h 2.793991 q 0.296333,0 0.296333,0.243416 0,0.148166 -0.169333,0.222249 l -0.09525,0.03175 q -0.08467,0.02117 -0.08467,0.116416 0,0.09525 0.158749,0.306916 z"
         style="font-family:Verona-Serial;-inkscape-font-specification:Verona-Serial"
         id="path6872" /><path
         d="m 27.598634,15.345985 -0.126999,-0.613831 q -0.169333,-0.888997 -0.952497,-0.888997 -0.529165,0 -0.941914,0.380998 l -0.179916,0.169333 q -0.148166,0.127 -0.253999,0.127 -0.09525,0 -0.169333,-0.05292 -0.0635,-0.0635 -0.0635,-0.148166 0,-0.116416 0.116417,-0.275166 0.116416,-0.158749 0.328082,-0.338665 0.751414,-0.592665 1.746244,-0.592665 1.640412,0 1.989661,1.449912 l 0.518581,2.233076 q 0.179916,0.825498 0.529165,0.825498 0.179916,0 0.232833,-0.116417 l 0.04233,-0.07408 0.07408,-0.02117 q 0.116416,0 0.116416,0.201082 0,0.359832 -0.349248,0.603248 -0.338666,0.232833 -0.857248,0.232833 -0.656164,0 -1.02658,-0.412749 -0.08467,-0.09525 -0.105833,-0.105833 -0.02117,-0.01058 -0.03175,-0.02117 l -0.0635,0.02117 -0.137582,0.105833 q -0.571499,0.412749 -1.492246,0.412749 -0.910163,0 -1.513411,-0.476249 -0.603249,-0.476248 -0.603249,-1.195912 0,-0.730248 0.603249,-1.174747 0.603248,-0.444498 1.587494,-0.444498 0.317499,0 0.476249,0.03175 0.158749,0.03175 0.507998,0.158749 z m 0.370416,1.576912 -0.222249,-0.963081 q -0.328083,-0.275165 -0.740831,-0.275165 -0.423332,0 -0.709082,0.285749 -0.275165,0.275166 -0.275165,0.709081 0,0.465665 0.306915,0.783164 0.317499,0.306916 0.783165,0.306916 0.370415,0 0.624414,-0.179916 0.253999,-0.179916 0.253999,-0.444499 z"
         style="font-family:Verona-Serial;-inkscape-font-specification:Verona-Serial"
         id="path6874" /><path
         d="m 34.752941,17.081646 -0.328083,-1.873244 q -0.126999,-0.86783 -0.77258,-0.86783 -0.412749,0 -0.666748,0.306915 -0.253999,0.306916 -0.253999,0.804331 v 1.629828 q 0,0.169333 0,0.285749 0.01058,0.116417 0.0635,0.243416 0.05292,0.127 0.328083,0.211666 0.285749,0.07408 0.285749,0.253999 0,0.232833 -0.296333,0.232833 h -2.412992 q -0.285749,0 -0.285749,-0.243416 0,-0.179916 0.275166,-0.253999 0.275165,-0.07408 0.328082,-0.232833 0.05292,-0.116416 0.05292,-0.497415 v -2.14841 q 0,-0.433915 -0.328082,-0.539748 l -0.09525,-0.03175 q -0.169332,-0.05292 -0.169332,-0.232832 0,-0.137583 0.137583,-0.201083 l 1.883827,-0.761998 0.08467,-0.03175 q 0.116417,0 0.148167,0.179917 v 0.761997 l 0.03175,0.0635 q 0.05292,-0.02117 0.0635,-0.04233 l 0.296333,-0.328083 q 0.529165,-0.592664 1.333495,-0.592664 1.227663,0 1.523995,1.471078 l 0.497416,2.434159 q 0.07408,0.391582 0.179916,0.539749 0.105833,0.137582 0.370415,0.211666 0.264583,0.05292 0.264583,0.243415 0,0.232833 -0.285749,0.232833 h -2.434159 q -0.296333,0 -0.296333,-0.243416 0,-0.158749 0.169333,-0.211666 l 0.09525,-0.03175 q 0.275166,-0.07408 0.275166,-0.338665 l -0.01058,-0.07408 z"
         style="font-family:Verona-Serial;-inkscape-font-specification:Verona-Serial"
         id="path6876" /><path
         d="m 42.838574,10.7105 v 6.31823 q 0,0.476248 0.328082,0.550331 l 0.243416,0.04233 q 0.116416,0.04233 0.116416,0.201082 0,0.07408 -0.05292,0.137583 -0.05292,0.05292 -0.137583,0.07408 l -1.979077,0.412749 -0.04233,0.01058 q -0.15875,0 -0.15875,-0.179916 0,-0.126999 0.04233,-0.243416 l 0.03175,-0.179916 q 0,-0.116416 -0.07408,-0.116416 -0.07408,0 -0.222249,0.148166 -0.232833,0.243416 -0.656165,0.412749 -0.412748,0.169333 -0.80433,0.169333 -0.952497,0 -1.576912,-0.698498 -0.624415,-0.698498 -0.624415,-1.777995 0,-1.195912 0.719665,-2.000243 0.730247,-0.814914 1.799161,-0.814914 0.603248,0 0.96308,0.243416 l 0.306915,0.243415 q 0.01058,0.01058 0.0635,0.02117 0.03175,-0.05292 0.03175,-0.08467 v -1.21708 q 0,-0.486832 -0.306916,-0.571498 l -0.116416,-0.03175 q -0.158749,-0.07408 -0.158749,-0.232832 0,-0.148167 0.148166,-0.201083 l 1.873244,-0.783164 0.09525,-0.01058 q 0.116416,0 0.148166,0.15875 z m -1.629828,5.662065 -0.01058,-0.137583 -0.04233,-0.888997 q 0,-0.730248 -0.349249,-1.164163 -0.338665,-0.433915 -0.878414,-0.433915 -0.529165,0 -0.857247,0.433915 -0.328082,0.423332 -0.328082,1.111247 0,0.910163 0.423332,1.555745 0.433915,0.634998 1.047747,0.634998 0.486831,0 0.74083,-0.285749 0.254,-0.28575 0.254,-0.825498 z"
         style="font-family:Verona-Serial;-inkscape-font-specification:Verona-Serial"
         id="path6878" /><path
         d="m 46.002986,13.313992 v 0.761997 l 0.03175,0.0635 q 0.02117,-0.02117 0.04233,-0.04233 0.02117,-0.03175 0.07408,-0.127 0.1905,-0.370415 0.571499,-0.613831 0.380998,-0.243416 0.783164,-0.243416 0.275166,0 0.486832,0.08467 0.211666,0.08467 0.211666,0.1905 0,0.04233 -0.01058,0.07408 -0.05292,0.09525 -0.09525,0.201082 l -0.15875,0.455082 -0.169333,0.539749 q -0.04233,0.275165 -0.232832,0.275165 -0.09525,0 -0.137583,-0.03175 -0.03175,-0.04233 -0.05292,-0.179917 -0.116416,-0.465665 -0.529165,-0.465665 -0.349249,0 -0.582081,0.296333 -0.232833,0.296332 -0.232833,0.772581 v 1.756827 q 0,0.402166 0.08467,0.529165 0.08467,0.127 0.380998,0.201083 0.306916,0.07408 0.306916,0.264582 0,0.232833 -0.285749,0.232833 h -2.603492 q -0.285749,0 -0.285749,-0.243416 0,-0.179916 0.296333,-0.243416 0.296332,-0.07408 0.380998,-0.253999 0.03175,-0.07408 0.04233,-0.179916 0.02117,-0.105833 0.02117,-0.306916 v -0.190499 -1.957911 q 0,-0.433915 -0.328082,-0.539748 l -0.09525,-0.03175 q -0.169333,-0.05292 -0.169333,-0.232832 0,-0.137583 0.137583,-0.201083 l 1.883828,-0.761998 0.08467,-0.03175 q 0.116416,0 0.148166,0.179917 z"
         style="font-family:Verona-Serial;-inkscape-font-specification:Verona-Serial"
         id="path6880" /><path
         d="m 50.215133,13.313992 v 3.767654 q 0,0.391582 0.08467,0.529165 0.08467,0.137583 0.370416,0.201083 0.285749,0.0635 0.285749,0.264582 0,0.232833 -0.285749,0.232833 h -2.539992 q -0.296333,0 -0.296333,-0.243416 0,-0.169333 0.211666,-0.222249 0.211666,-0.0635 0.296333,-0.116416 0.09525,-0.0635 0.148166,-0.15875 0.04233,-0.116416 0.04233,-0.243416 0.01058,-0.137583 0.01058,-0.243416 v -0.190499 -1.957911 q 0,-0.433915 -0.317499,-0.539748 l -0.105833,-0.03175 q -0.158749,-0.05292 -0.158749,-0.232832 0,-0.148167 0.137583,-0.201083 l 1.873244,-0.761998 q 0.01058,-0.01058 0.03175,-0.01058 0.03175,-0.01058 0.0635,-0.02117 0.116417,0 0.148167,0.179917 z m -2.063744,-1.354663 q 0.116417,-0.359832 0.550332,-0.634998 0.444498,-0.275166 0.910164,-0.275166 0.296332,0 0.465665,0.127 0.179916,0.116416 0.179916,0.328082 0,0.317499 -0.349249,0.613832 -0.222249,0.201082 -0.539748,0.328082 -0.317499,0.127 -0.592665,0.127 -0.656165,0 -0.656165,-0.444499 z"
         style="font-family:Verona-Serial;-inkscape-font-specification:Verona-Serial"
         id="path6882" /><path
         d="m 54.363792,15.345985 -0.127,-0.613831 q -0.169332,-0.888997 -0.952497,-0.888997 -0.529165,0 -0.941913,0.380998 l -0.179916,0.169333 q -0.148167,0.127 -0.253999,0.127 -0.09525,0 -0.169333,-0.05292 -0.0635,-0.0635 -0.0635,-0.148166 0,-0.116416 0.116416,-0.275166 0.116417,-0.158749 0.328082,-0.338665 0.751415,-0.592665 1.746245,-0.592665 1.640411,0 1.98966,1.449912 l 0.518582,2.233076 q 0.179916,0.825498 0.529165,0.825498 0.179916,0 0.232833,-0.116417 l 0.04233,-0.07408 0.07408,-0.02117 q 0.116416,0 0.116416,0.201082 0,0.359832 -0.349249,0.603248 -0.338665,0.232833 -0.857247,0.232833 -0.656165,0 -1.02658,-0.412749 -0.08467,-0.09525 -0.105833,-0.105833 -0.02117,-0.01058 -0.03175,-0.02117 l -0.0635,0.02117 -0.137583,0.105833 q -0.571498,0.412749 -1.492245,0.412749 -0.910164,0 -1.513412,-0.476249 -0.603248,-0.476248 -0.603248,-1.195912 0,-0.730248 0.603248,-1.174747 0.603248,-0.444498 1.587495,-0.444498 0.317499,0 0.476249,0.03175 0.158749,0.03175 0.507998,0.158749 z m 0.370416,1.576912 -0.22225,-0.963081 q -0.328082,-0.275165 -0.740831,-0.275165 -0.423332,0 -0.709081,0.285749 -0.275166,0.275166 -0.275166,0.709081 0,0.465665 0.306916,0.783164 0.317499,0.306916 0.783164,0.306916 0.370416,0 0.624415,-0.179916 0.253999,-0.179916 0.253999,-0.444499 z"
         style="font-family:Verona-Serial;-inkscape-font-specification:Verona-Serial"
         id="path6884" /></g><g
       aria-label="Library of"
       id="text183-4"
       style="font-size:7.76111px;font-family:'Fira Code';-inkscape-font-specification:'Fira Code';text-align:center;text-anchor:middle;fill:#1f2937;stroke-width:2;stroke-linecap:round;stroke-linejoin:round;paint-order:stroke fill markers;stop-color:#000000"><path
         d="M 2.3488013,8.775815 V 5.4618211 q 0,-0.3725333 -0.054328,-0.4811888 -0.054328,-0.1164167 -0.2638777,-0.1397 -0.20955,-0.031045 -0.20955,-0.20955 0,-0.2017888 0.2716389,-0.2017888 h 1.8083386 q 0.2793999,0 0.2793999,0.2095499 0,0.1008945 -0.038805,0.1397 -0.038806,0.038806 -0.1940278,0.062089 -0.1552222,0.023283 -0.2017888,0.1397 -0.046567,0.1086555 -0.046567,0.4811888 v 3.4304105 q 0,0.3570111 0.093133,0.4501444 0.093133,0.093133 0.4346222,0.093133 h 0.496711 q 0.3570111,0 0.5898444,-0.038806 Q 5.5541397,9.3578982 5.7636896,9.2492427 6.0198063,9.1173038 6.423384,8.7292483 6.5320395,8.6205928 6.6174117,8.6205928 q 0.077611,0 0.1241778,0.046567 0.077611,0.054328 0.077611,0.1397 0,0.038806 -0.054328,0.1474611 l -0.706261,1.1408835 q -0.1086555,0.155222 -0.2173111,0.155222 -0.1086555,0 -0.2561166,-0.1397 -0.077611,-0.06985 -0.1241777,-0.08537 -0.046567,-0.01552 -0.1862667,-0.01552 h -3.182055 q -0.2716389,0 -0.2716389,-0.2095495 0,-0.1008945 0.038806,-0.1397 0.046567,-0.046567 0.20955,-0.062089 0.1629833,-0.023283 0.217311,-0.1319389 0.062089,-0.1164166 0.062089,-0.4501443 v -0.038806 z"
         style="font-family:Verona-Serial;-inkscape-font-specification:Verona-Serial"
         id="path6887" /><path
         d="m 8.3170933,6.3465876 v 2.7629551 q 0,0.2871611 0.062089,0.3880555 0.062089,0.1008944 0.2716389,0.1474611 0.2095499,0.046567 0.2095499,0.1940277 0,0.170744 -0.2095499,0.170744 H 6.7881547 q -0.2173111,0 -0.2173111,-0.1785051 0,-0.1241778 0.1552222,-0.1629833 0.1552222,-0.046567 0.2173111,-0.085372 0.06985,-0.046567 0.1086555,-0.1164167 0.031045,-0.085372 0.031045,-0.1785055 0.00776,-0.1008944 0.00776,-0.1785055 v -0.1397 -1.4358053 q 0,-0.3182055 -0.2328333,-0.3958166 L 6.7803936,7.1149375 Q 6.6639769,7.0761319 6.6639769,6.944193 q 0,-0.1086555 0.1008945,-0.147461 L 8.1385878,6.2379321 q 0.00776,-0.00776 0.023283,-0.00776 0.023283,-0.00776 0.046567,-0.015522 0.085372,0 0.1086555,0.1319389 z M 6.8036769,5.3531655 Q 6.8890491,5.0892878 7.2072546,4.8874989 7.5332212,4.6857101 7.8747101,4.6857101 q 0.217311,0 0.3414888,0.093133 0.1319389,0.085372 0.1319389,0.2405944 0,0.2328333 -0.2561167,0.4501444 -0.1629833,0.1474611 -0.3958166,0.2405944 -0.2328333,0.093133 -0.4346221,0.093133 -0.4811888,0 -0.4811888,-0.3259666 z"
         style="font-family:Verona-Serial;-inkscape-font-specification:Verona-Serial"
         id="path6889" /><path
         d="m 10.598865,4.4373546 v 2.1886329 q 0,0.031045 0,0.054328 0.0078,0.015522 0.01552,0.031045 0.02328,-0.00776 0.04657,-0.023283 0.02328,-0.015522 0.05433,-0.062089 0.1397,-0.1707444 0.380295,-0.2716388 0.248355,-0.1008944 0.527755,-0.1008944 0.737305,0 1.272822,0.6131276 0.535517,0.6131277 0.535517,1.4590887 0,0.7838721 -0.457906,1.2883442 -0.457905,0.5044722 -1.18745,0.5044722 -0.5588,0 -1.016705,-0.3414889 -0.124178,-0.093133 -0.201789,-0.093133 -0.06985,0 -0.178505,0.054328 l -0.372534,0.1552222 q -0.1164164,0.038805 -0.2017886,0.077611 -0.085372,0.038805 -0.1474611,0.06985 -0.1319388,0.07761 -0.2095499,0.07761 -0.1319389,0 -0.1319389,-0.1552222 L 9.3493258,9.7381926 9.364848,9.3501371 V 5.6636099 q 0,-0.357011 -0.2328332,-0.4190999 L 9.0544037,5.2212267 Q 8.937987,5.1668989 8.937987,5.0504822 q 0,-0.1086555 0.1086555,-0.147461 l 1.3737165,-0.5743222 0.06985,-0.00776 q 0.08537,0 0.108656,0.1164167 z m 0.84596,2.2740052 q -0.349249,0 -0.605366,0.3104443 -0.248356,0.3026833 -0.248356,0.7528277 l -0.01552,0.6752166 v 0.054328 q 0,0.4423833 0.201789,0.6984999 0.201789,0.2561166 0.566561,0.2561166 0.450144,0 0.714022,-0.4035777 0.263878,-0.4035777 0.263878,-1.1098387 0,-0.5510388 -0.240595,-0.8925276 -0.240594,-0.3414888 -0.636411,-0.3414888 z"
         style="font-family:Verona-Serial;-inkscape-font-specification:Verona-Serial"
         id="path6891" /><path
         d="m 15.480596,6.3465876 v 0.5587999 l 0.02328,0.046567 q 0.01552,-0.015522 0.03104,-0.031045 0.01552,-0.023283 0.05433,-0.093133 0.1397,-0.2716388 0.4191,-0.4501444 0.2794,-0.1785055 0.574322,-0.1785055 0.201789,0 0.357011,0.062089 0.155222,0.062089 0.155222,0.1397 0,0.031044 -0.0078,0.054328 -0.03881,0.06985 -0.06985,0.1474611 l -0.116417,0.3337277 -0.124177,0.3958166 q -0.03104,0.2017889 -0.170745,0.2017889 -0.06985,0 -0.100894,-0.023283 -0.02328,-0.031045 -0.03881,-0.1319389 -0.08537,-0.3414888 -0.388055,-0.3414888 -0.256117,0 -0.426861,0.217311 -0.170745,0.2173111 -0.170745,0.5665611 v 1.2883442 q 0,0.2949222 0.06209,0.3880555 0.06209,0.093133 0.2794,0.1474611 0.225072,0.054328 0.225072,0.1940277 0,0.170744 -0.20955,0.170744 h -1.909233 q -0.20955,0 -0.20955,-0.1785051 0,-0.1319389 0.217311,-0.1785055 0.217311,-0.054328 0.2794,-0.1862667 0.02328,-0.054328 0.03105,-0.1319388 0.01552,-0.077611 0.01552,-0.2250722 v -0.1397 -1.4358053 q 0,-0.3182055 -0.240594,-0.3958166 l -0.06985,-0.023283 Q 13.82748,7.0761319 13.82748,6.944193 q 0,-0.1008944 0.100894,-0.147461 l 1.381478,-0.5587999 0.06209,-0.023283 q 0.08537,0 0.108655,0.1319389 z"
         style="font-family:Verona-Serial;-inkscape-font-specification:Verona-Serial"
         id="path6893" /><path
         d="m 19.268017,7.8367207 -0.09313,-0.4501444 q -0.124178,-0.6519332 -0.6985,-0.6519332 -0.388056,0 -0.690739,0.2793999 l -0.131939,0.1241778 q -0.108655,0.093133 -0.186267,0.093133 -0.06985,0 -0.124177,-0.038805 -0.04657,-0.046567 -0.04657,-0.1086556 0,-0.085372 0.08537,-0.2017888 0.08537,-0.1164167 0.240595,-0.2483555 0.551038,-0.4346222 1.280583,-0.4346222 1.202972,0 1.459088,1.063272 l 0.380295,1.6375942 q 0.131939,0.6053666 0.388055,0.6053666 0.131939,0 0.170745,-0.085372 l 0.03104,-0.054328 0.05433,-0.015522 q 0.08537,0 0.08537,0.1474611 0,0.2638777 -0.256117,0.4423832 -0.248355,0.1707446 -0.628649,0.1707446 -0.481189,0 -0.752828,-0.3026834 -0.06209,-0.06985 -0.07761,-0.077611 -0.01552,-0.00776 -0.02328,-0.015522 l -0.04657,0.015522 -0.100895,0.077611 q -0.4191,0.3026834 -1.094316,0.3026834 -0.667456,0 -1.109839,-0.3492501 -0.442383,-0.3492499 -0.442383,-0.8770054 0,-0.5355166 0.442383,-0.8614832 0.442383,-0.3259666 1.164167,-0.3259666 0.232833,0 0.34925,0.023283 0.116416,0.023283 0.372533,0.1164167 z M 19.539656,8.993126 19.376672,8.286865 q -0.240594,-0.2017888 -0.543277,-0.2017888 -0.310445,0 -0.519995,0.20955 -0.201788,0.2017888 -0.201788,0.5199943 0,0.3414888 0.225072,0.5743221 0.232833,0.2250722 0.574322,0.2250722 0.271639,0 0.457905,-0.1319388 0.186267,-0.1319389 0.186267,-0.3259667 z"
         style="font-family:Verona-Serial;-inkscape-font-specification:Verona-Serial"
         id="path6895" /><path
         d="m 23.032152,6.3465876 v 0.5587999 l 0.02328,0.046567 q 0.01552,-0.015522 0.03105,-0.031045 0.01552,-0.023283 0.05433,-0.093133 0.1397,-0.2716388 0.4191,-0.4501444 0.2794,-0.1785055 0.574322,-0.1785055 0.201789,0 0.357011,0.062089 0.155223,0.062089 0.155223,0.1397 0,0.031044 -0.0078,0.054328 -0.03881,0.06985 -0.06985,0.1474611 l -0.116417,0.3337277 -0.124178,0.3958166 q -0.03104,0.2017889 -0.170744,0.2017889 -0.06985,0 -0.100895,-0.023283 -0.02328,-0.031045 -0.0388,-0.1319389 -0.08537,-0.3414888 -0.388056,-0.3414888 -0.256116,0 -0.426861,0.217311 -0.170744,0.2173111 -0.170744,0.5665611 v 1.2883442 q 0,0.2949222 0.06209,0.3880555 0.06209,0.093133 0.2794,0.1474611 0.225072,0.054328 0.225072,0.1940277 0,0.170744 -0.20955,0.170744 H 21.47993 q -0.20955,0 -0.20955,-0.1785051 0,-0.1319389 0.217311,-0.1785055 0.217311,-0.054328 0.2794,-0.1862667 0.02328,-0.054328 0.03104,-0.1319388 0.01552,-0.077611 0.01552,-0.2250722 v -0.1397 -1.4358053 q 0,-0.3182055 -0.240595,-0.3958166 l -0.06985,-0.023283 q -0.124178,-0.038806 -0.124178,-0.1707445 0,-0.1008944 0.100895,-0.147461 l 1.381477,-0.5587999 0.06209,-0.023283 q 0.08537,0 0.108656,0.1319389 z"
         style="font-family:Verona-Serial;-inkscape-font-specification:Verona-Serial"
         id="path6897" /><path
         d="m 27.774188,7.223593 0.100895,-0.2250722 q 0.01552,-0.031044 0.02328,-0.06985 0.0078,-0.046567 0.0078,-0.06985 0,-0.1396999 -0.124178,-0.1707444 l -0.07761,-0.023283 q -0.116416,-0.054328 -0.116416,-0.1629833 0,-0.1785055 0.20955,-0.1785055 h 1.187449 q 0.217312,0 0.217312,0.1785055 0,0.077611 -0.03881,0.1164166 -0.03881,0.031045 -0.155222,0.06985 -0.162984,0.038806 -0.263878,0.1474611 -0.09313,0.1008944 -0.232833,0.3880555 l -1.60655,3.368322 q -0.201789,0.426861 -0.457905,0.605366 -0.248356,0.186267 -0.636411,0.186267 -0.512234,0 -0.582084,-0.2794 l -0.155222,-0.791633 -0.0078,-0.09313 q 0,-0.162983 0.162983,-0.162983 0.131939,0 0.194028,0.186267 0.170744,0.512233 0.473428,0.512233 0.1397,0 0.248355,-0.108656 0.116417,-0.100894 0.217311,-0.318205 0.100895,-0.217311 0.100895,-0.3880556 0,-0.093133 -0.07761,-0.2561166 L 25.1975,7.223593 Q 25.081083,6.9752375 25.003472,6.8743431 24.879294,6.726882 24.755117,6.6880764 l -0.08537,-0.023283 q -0.108655,-0.046567 -0.108655,-0.1707444 0,-0.1707444 0.20955,-0.1707444 h 1.8161 q 0.209549,0 0.209549,0.1785055 0,0.1241777 -0.108655,0.1629833 l -0.06985,0.023283 q -0.124178,0.038806 -0.124178,0.1552222 0,0.077611 0.124178,0.3802944 l 0.519994,1.2417776 q 0.0078,0.023283 0.02328,0.031044 0.02328,0.00776 0.03104,0.00776 l 0.04657,-0.031044 z"
         style="font-family:Verona-Serial;-inkscape-font-specification:Verona-Serial"
         id="path6899" /><path
         d="m 31.305506,8.1471651 q 0,-0.8614832 0.613128,-1.4047609 0.613127,-0.5432777 1.583266,-0.5432777 0.993422,0 1.660878,0.6053666 0.667455,0.6053665 0.667455,1.5056553 0,0.8304387 -0.613128,1.3193886 -0.613127,0.48895 -1.660877,0.48895 -1.001183,0 -1.629833,-0.5432777 -0.620889,-0.5510388 -0.620889,-1.4280442 z m 1.940277,-1.5366998 q -0.294922,0 -0.496711,0.1785055 -0.194027,0.1707445 -0.240594,0.48895 -0.03104,0.093133 -0.03104,0.2095499 0,0.8614832 0.403577,1.5056553 0.403578,0.636411 0.946856,0.636411 0.372533,0 0.574322,-0.2328332 0.201789,-0.2328333 0.201789,-0.6596944 0,-0.5044721 -0.232834,-1.0555109 Q 34.146072,7.1226986 33.820106,6.8355375 33.57175,6.6104653 33.245783,6.6104653 Z"
         style="font-family:Verona-Serial;-inkscape-font-specification:Verona-Serial"
         id="path6901" /><path
         d="m 36.645153,8.9698427 v -1.979083 q 0,-0.1164166 -0.100894,-0.1164166 h -0.302684 q -0.100894,0 -0.116416,-0.085372 l -0.08537,-0.357011 v -0.031044 q 0,-0.06985 0.09313,-0.06985 h 0.372533 q 0.100894,0 0.100894,-0.062089 0,-0.062089 -0.06209,-0.1474611 -0.364773,-0.426861 -0.364773,-0.8381999 0,-0.4423832 0.395817,-0.706261 0.395817,-0.2638777 1.071033,-0.2638777 0.636411,0 1.008944,0.2173111 0.380295,0.2173111 0.380295,0.5820832 0,0.2328333 -0.1397,0.3802944 -0.1397,0.1474611 -0.372533,0.1474611 -0.1397,0 -0.256117,-0.054328 -0.116417,-0.054328 -0.116417,-0.1241777 0.03104,-0.038806 0.04657,-0.046567 l 0.05433,-0.046567 q 0.08537,-0.054328 0.08537,-0.1862667 0,-0.1785055 -0.155222,-0.3026833 -0.155222,-0.1241777 -0.380295,-0.1241777 -0.225072,0 -0.364772,0.1397 -0.1397,0.1396999 -0.1397,0.3647721 0,0.1707444 0.05433,0.2794 0.05433,0.1086555 0.1397,0.217311 0.05433,0.06985 0.201789,0.2250722 0.108655,0.1086556 0.131939,0.1707444 0.03104,0.054328 0.03104,0.1397 v 0.038806 l 0.675217,-0.00776 q 0.05433,0 0.06985,0.023283 0.01552,0.015522 0.02328,0.023283 l -0.0078,0.054328 -0.100895,0.3647721 -0.0388,0.06985 -0.07761,0.015522 h -0.434622 q -0.06209,0 -0.07761,0.015522 -0.01552,0.015522 -0.01552,0.1086555 v 2.1110219 q 0,0.2716388 0.04657,0.3725333 0.04657,0.1008944 0.318205,0.1707444 0.194028,0.046567 0.194028,0.1862666 0,0.170744 -0.20955,0.170744 h -1.901472 q -0.217311,0 -0.217311,-0.1785051 0,-0.1319389 0.217311,-0.1785055 0.217311,-0.054328 0.271639,-0.1862667 0.03104,-0.054328 0.03881,-0.1086555 0.0078,-0.062089 0.0078,-0.2483555 z"
         style="font-family:Verona-Serial;-inkscape-font-specification:Verona-Serial"
         id="path6903" /></g><g
       style="fill:#1f2937"
       id="g696"
       transform="matrix(0.01460084,0,0,0.012202,41.120618,-0.85838933)"><g
         id="g676"
         style="fill:#1f2937">

<g
   transform="matrix(0.1,0,0,-0.1,0,409)"
   id="g674"
   style="fill:#1f2937;stroke:#1f2937;stroke-width:75.7219;stroke-linecap:round;stroke-linejoin:round;stroke-dasharray:none;stroke-dashoffset:0;stroke-opacity:1;paint-order:normal">

<path
   d="m 4890.9,2958.1 -53.6,-45.9 -5.7,-555 -5.8,-555 -51.7,-13.4 c -105.3,-24.9 -520.6,-239.2 -713.9,-369.4 -445.9,-298.6 -740.7,-652.7 -830.6,-1001 -72.7,-275.6 21.1,-779 176.1,-939.8 l 51.7,-53.6 H 5000 6542.6 l 51.7,53.6 c 143.5,151.2 241.2,618.2 185.7,893.8 -70.8,356 -375.1,733 -840.2,1046.9 -193.3,128.2 -606.7,344.5 -713.9,369.4 l -51.7,13.4 -5.7,555 -5.7,555 -53.6,45.9 c -30.6,24.9 -78.5,45.9 -109.1,45.9 -30.7,0.1 -78.6,-20.9 -109.2,-45.8 z M 5143.5,1472.9 C 5790.5,1216.4 6334,753.2 6446.9,368.5 6483.3,244.1 6473.7,43.1 6422,-138.7 l -30.6,-111 H 5000 3608.5 l -32.5,111 c -49.8,181.8 -59.3,380.9 -23,505.3 86.1,298.6 449.8,666 911,920.6 109.1,59.3 503.4,241.2 530.2,243.1 2,0 69,-24.9 149.3,-57.4 z"
   id="path654"
   style="fill:#1f2937;stroke:#1f2937;stroke-width:75.7219;stroke-linecap:round;stroke-linejoin:round;stroke-dasharray:none;stroke-dashoffset:0;stroke-opacity:1;paint-order:normal" />

<path
   d="M 684,703.5 C 611.3,665.2 597.9,626.9 597.9,473.8 V 326.4 L 364.4,167.5 C 113.7,-2.8 75.4,-48.7 111.8,-148.3 c 9.6,-32.5 45.9,-67 90,-88 l 70.8,-36.4 v -352.2 c 0,-350.3 0,-354.1 47.8,-400 59.3,-61.3 143.5,-61.3 214.4,-1.9 l 53.6,45.9 9.6,461.3 9.6,461.3 76.4,45.9 74.6,45.9 82.4,-55.4 82.3,-57.4 v -449.8 -449.8 l 47.8,-45.9 c 59.3,-61.3 143.5,-61.3 214.4,-1.9 l 53.6,45.9 5.7,365.6 c 5.7,342.6 7.7,365.6 42.1,365.6 51.7,0 114.8,90 114.8,162.7 0,76.6 -53.6,128.2 -302.4,283.3 l -176,112.8 v 132.1 c 0,153.1 -34.4,239.2 -107.2,266 -61.2,23 -84.2,23 -132.1,-3.8 z"
   id="path656"
   style="fill:#1f2937;stroke:#1f2937;stroke-width:75.7219;stroke-linecap:round;stroke-linejoin:round;stroke-dasharray:none;stroke-dashoffset:0;stroke-opacity:1;paint-order:normal" />

<path
   d="M 9172.4,701.6 C 9103.5,667.1 9076.7,598.2 9076.7,449 V 315 L 8900.6,200.2 c -256.5,-166.5 -302.4,-210.5 -302.4,-289 0,-70.8 68.9,-160.8 124.4,-160.8 24.9,0 28.7,-47.8 28.7,-356 v -356 l 55.5,-55.5 c 72.7,-70.8 156.9,-74.7 222,-7.7 l 47.9,45.9 v 449.8 449.8 l 82.3,57.4 82.3,55.5 80.4,-49.8 78.5,-51.7 5.7,-455.5 5.7,-457.4 53.6,-45.9 c 70.8,-59.4 155,-59.4 214.4,1.9 47.9,45.9 47.9,49.8 47.9,400 v 352.2 l 70.8,36.4 c 44,21 80.4,55.5 90,88 36.3,99.5 -1.9,145.5 -252.6,315.8 L 9402.2,326.5 V 468 c 0,170.3 -7.7,195.2 -78.5,229.7 -65.2,34.5 -90,34.5 -151.3,3.9 z"
   id="path658"
   style="fill:#1f2937;stroke:#1f2937;stroke-width:75.7219;stroke-linecap:round;stroke-linejoin:round;stroke-dasharray:none;stroke-dashoffset:0;stroke-opacity:1;paint-order:normal" />

<path
   d="m 2806.6,48.9 c -32.5,-15.3 -65.1,-40.2 -72.7,-59.3 -5.7,-17.2 -11.5,-162.7 -11.5,-323.5 v -290.9 l -145.5,-93.8 c -168.4,-109.1 -329.2,-275.6 -413.4,-423 l -57.4,-103.4 h -103.3 -103.4 v 93.8 c 0,130.1 -26.8,189.5 -97.6,220.1 -76.6,32.5 -143.5,19.1 -189.5,-42.1 -38.3,-45.9 -38.3,-82.3 -38.3,-1785.7 v -1739.8 h -162.7 -162.7 v 648.8 c 0,637.3 0,650.7 38.3,662.2 114.8,36.4 153.1,183.7 67,268 l -45.9,47.8 H 751 194 l -45.9,-47.8 c -67,-65.1 -63.2,-149.3 7.7,-222 30.6,-30.6 70.8,-55.5 86.1,-55.5 26.8,0 30.6,-70.8 30.6,-641.2 v -639.3 l -65.1,-30.6 c -114.8,-55.5 -139.7,-172.3 -51.7,-260.3 l 55.5,-55.5 H 5000 9788.7 l 55.5,55.5 c 88,88 63.2,212.4 -53.6,254.6 l -63.2,23 v 646.9 c 0,576.1 3.8,646.9 30.6,646.9 15.3,0 55.5,24.9 86.1,55.5 70.8,72.7 74.6,156.9 7.7,222 l -45.9,47.8 h -557 -557 l -45.9,-47.8 c -86.1,-84.2 -47.8,-231.6 67,-268 38.3,-11.5 38.3,-24.9 38.3,-662.2 v -648.8 H 8588.6 8426 v 1739.8 1741.7 l -42.1,47.8 c -67,72.7 -164.6,74.6 -235.4,1.9 -40.2,-38.3 -47.8,-65.1 -47.8,-162.7 V -1245 H 7997.3 7894 l -57.4,101.4 c -86.1,151.2 -239.2,310.1 -407.7,419.2 l -151.2,97.6 V -332 c 0,162.7 -7.7,310.1 -19.1,329.2 -30.6,59.3 -124.4,88 -191.4,59.3 -101.4,-42.1 -114.8,-95.7 -114.8,-465.1 0,-193.3 9.6,-357.9 21,-394.3 17.2,-47.8 47.9,-72.7 160.8,-128.2 145.4,-70.8 354.1,-239.2 354.1,-287.1 0,-23 -88,-26.8 -587.6,-23 l -589.5,5.7 -9.6,206.7 c -9.6,189.5 -13.4,212.5 -55.5,245 -67,53.6 -147.4,45.9 -214.4,-19.1 l -55.5,-55.5 v -279.5 c 0,-151.2 7.7,-298.6 19.1,-327.3 38.3,-103.4 65.1,-105.3 1129.2,-105.3 h 976.1 v -1464.2 -1464.2 h -76.6 -76.6 v 325.4 c 0,371.3 -15.3,438.3 -112.9,476.6 -68.9,30.6 -162.7,1.9 -193.3,-57.4 -11.5,-19.1 -19.1,-193.3 -19.1,-388.5 v -356 h -172.3 -172.3 v 292.8 c 0,290.9 0,292.8 -55.5,380.9 -82.3,128.2 -325.4,302.4 -423,302.4 -130.1,0 -438.3,-252.6 -476.6,-394.3 -11.5,-40.2 -21,-189.5 -21,-327.3 v -254.6 H 6138.7 5976 V -3230 c 0,1427.8 9.6,1330.2 -151.2,1510.1 -153.1,172.3 -679.5,474.7 -824.9,474.7 -145.5,0 -671.8,-302.4 -824.9,-474.7 -160.8,-179.9 -151.2,-82.3 -151.2,-1510.1 v -1268.9 h -162.7 -162.7 v 254.6 c 0,137.8 -9.6,287.1 -21.1,327.3 -38.3,141.6 -346.4,394.3 -476.6,394.3 -97.6,0 -340.7,-174.2 -423,-302.4 -55.5,-88 -55.5,-90 -55.5,-380.9 v -292.8 h -172.3 -172.3 v 356 c 0,195.2 -7.7,369.4 -19.1,388.5 -30.6,59.3 -124.4,88 -191.4,59.3 -101.4,-42.1 -114.8,-93.8 -114.8,-468.9 v -334.9 h -76.3 -76.6 v 1464.2 1464.2 h 976.1 c 1064.2,0 1091,1.9 1129.2,105.3 11.5,28.7 19.1,176.1 19.1,327.3 v 279.5 l -55.5,55.5 c -67,65.1 -147.4,72.7 -214.4,19.1 -42.1,-32.5 -45.9,-55.5 -55.5,-245 l -9.6,-206.7 -587.6,-5.7 c -501.4,-3.8 -589.5,0 -589.5,23 0,47.9 208.6,216.3 354.1,287.1 112.9,55.5 143.5,80.4 160.8,128.2 28.7,80.4 26.8,681.4 0,761.7 -11.5,34.5 -45.9,72.7 -76.6,88 -64.9,34.5 -68.8,34.5 -143.4,2 z m 2333.1,-1688.1 c 153.1,-76.6 405.8,-250.7 461.3,-315.8 l 49.8,-59.3 V -3256.4 -4498.6 H 5000 4349.3 v 1242.2 c 0,1226.8 0,1242.1 40.2,1291.9 84.2,107.2 516.8,375.1 606.7,375.1 22.9,-0.1 88,-23 143.5,-49.8 z M 923.3,-3847.9 v -650.7 H 760.6 597.9 v 650.7 650.7 h 162.7 162.7 z m 8478.8,0 v -650.7 h -162.7 -162.7 v 650.7 650.7 h 162.7 162.7 z m -6080.6,-112.9 c 51.7,-47.8 51.7,-49.8 51.7,-292.8 v -245 h -162.7 -162.7 v 258.4 258.4 l 78.5,57.4 c 86.1,61.2 86.1,63.1 195.2,-36.4 z m 3569.5,22.9 61.3,-45.9 v -258.4 -256.5 h -162.7 -162.7 v 246.9 246.9 l 78.5,68.9 c 84.1,70.9 86,70.9 185.6,-1.9 z"
   id="path660"
   style="fill:#1f2937;stroke:#1f2937;stroke-width:75.7219;stroke-linecap:round;stroke-linejoin:round;stroke-dasharray:none;stroke-dashoffset:0;stroke-opacity:1;paint-order:normal" />

<path
   d="m 148.1,-1292.8 c -84.2,-82.3 -40.2,-237.3 76.6,-266 l 47.9,-11.5 v -524.4 -526.3 l 49.8,-38.3 c 67,-53.6 147.4,-49.7 212.5,5.8 l 53.6,45.9 5.7,518.7 5.7,518.7 h 160.8 162.7 v -516.8 -518.7 l 47.8,-45.9 c 68.9,-70.8 164.6,-65.1 227.8,11.5 l 49.8,59.3 v 505.3 c 0,465.1 1.9,507.2 34.4,518.7 114.8,40.2 153.1,166.5 78.5,262.2 l -38.3,49.8 H 758.7 194.1 Z"
   id="path662"
   style="fill:#1f2937;stroke:#1f2937;stroke-width:75.7219;stroke-linecap:round;stroke-linejoin:round;stroke-dasharray:none;stroke-dashoffset:0;stroke-opacity:1;paint-order:normal" />

<path
   d="m 8640.3,-1289 c -80.4,-86.1 -40.2,-225.8 78.5,-267.9 30.6,-11.5 32.5,-53.6 32.5,-518.7 v -505.3 l 49.8,-59.3 c 63.2,-76.6 158.9,-82.3 227.8,-11.5 l 47.9,45.9 v 518.7 516.8 h 162.7 160.8 l 5.7,-518.7 5.7,-518.7 53.6,-45.9 c 65.1,-55.5 145.5,-59.3 212.5,-5.8 l 49.8,38.3 v 526.3 524.4 l 47.9,11.5 c 116.7,28.7 160.8,183.8 76.6,266 l -45.9,47.9 h -562.7 -562.7 z"
   id="path664"
   style="fill:#1f2937;stroke:#1f2937;stroke-width:75.7219;stroke-linecap:round;stroke-linejoin:round;stroke-dasharray:none;stroke-dashoffset:0;stroke-opacity:1;paint-order:normal" />

<path
   d="m 3028.6,-1964.6 c -137.8,-90 -223.9,-174.2 -269.9,-260.3 -32.5,-63.2 -36.4,-114.8 -36.4,-474.6 0,-375.1 1.9,-403.8 38.3,-440.2 86.1,-86.1 214.4,-63.2 258.4,47.9 21.1,47.9 28.7,151.2 28.7,400 v 334.9 l 70.8,57.4 c 40.2,32.5 76.6,59.3 82.3,59.3 7.7,0 47.8,-30.6 91.9,-68.9 l 80.4,-68.9 v -361.7 c 0,-334.9 1.9,-363.7 38.3,-400 80.4,-80.4 212.4,-61.3 262.2,38.3 30.6,61.3 34.4,704.3 3.8,811.5 -24.9,91.9 -147.4,225.8 -292.8,321.5 -147.4,95.7 -216.3,95.7 -356,3.8 z"
   id="path666"
   style="fill:#1f2937;stroke:#1f2937;stroke-width:75.7219;stroke-linecap:round;stroke-linejoin:round;stroke-dasharray:none;stroke-dashoffset:0;stroke-opacity:1;paint-order:normal" />

<path
   d="m 6615.4,-1968.4 c -145.5,-95.7 -268,-229.7 -292.9,-321.5 -30.6,-107.2 -26.8,-750.3 3.8,-811.5 49.8,-99.5 181.8,-118.7 262.2,-38.3 36.4,36.4 38.3,65.1 38.3,400 v 361.7 l 80.4,68.9 c 44,38.3 84.2,68.9 91.9,68.9 5.7,0 42.1,-26.8 82.3,-59.3 l 70.8,-57.4 v -348.3 c 0,-310.1 3.8,-354.1 36.4,-409.6 45.9,-74.6 128.2,-97.6 208.6,-55.5 30.6,15.3 61.3,44 68.9,59.3 5.7,17.2 11.5,208.6 11.5,423 0,348.3 -3.8,400 -36.4,463.2 -45.9,86.1 -132.1,170.4 -269.9,260.3 -139.7,91.8 -208.6,91.8 -355.9,-3.9 z"
   id="path668"
   style="fill:#1f2937;stroke:#1f2937;stroke-width:75.7219;stroke-linecap:round;stroke-linejoin:round;stroke-dasharray:none;stroke-dashoffset:0;stroke-opacity:1;paint-order:normal" />

<path
   d="m 2117.6,-2092.8 -55.5,-47.9 -5.7,-451.7 c -5.7,-382.8 -1.9,-459.3 24.9,-509.1 53.6,-101.4 176.1,-120.6 258.4,-38.3 36.4,36.4 38.3,65.1 38.3,514.9 0,534 -3.8,547.4 -135.9,568.4 -55.6,9.6 -78.6,2 -124.5,-36.3 z"
   id="path670"
   style="fill:#1f2937;stroke:#1f2937;stroke-width:75.7219;stroke-linecap:round;stroke-linejoin:round;stroke-dasharray:none;stroke-dashoffset:0;stroke-opacity:1;paint-order:normal" />

<path
   d="m 7704.4,-2067.9 c -76.6,-30.6 -82.3,-74.6 -82.3,-562.7 0,-444 1.9,-472.7 38.3,-509.1 86.1,-86.1 214.4,-63.2 258.4,47.9 42.1,97.6 40.2,868.9 0,947.4 -46,87.9 -118.7,114.7 -214.4,76.5 z"
   id="path672"
   style="fill:#1f2937;stroke:#1f2937;stroke-width:75.7219;stroke-linecap:round;stroke-linejoin:round;stroke-dasharray:none;stroke-dashoffset:0;stroke-opacity:1;paint-order:normal" />

</g>

</g></g></g><g
     inkscape:groupmode="layer"
     id="layer2"
     inkscape:label="Capa 2"
     style="display:inline;opacity:0.65"
     transform="translate(-0.83346735,-0.42067128)" /><g
     inkscape:groupmode="layer"
     id="layer3"
     inkscape:label="Capa 3"
     style="display:inline"
     transform="translate(-0.83346735,-0.42067128)" /></svg>
